<svg xmlns="http://www.w3.org/2000/svg" width="160" height="61" viewBox="0 0 160 61"><path d="M45.96 20.113h10.67v4.11H45.96Zm19.95 0h10.668v4.11H65.91ZM55.797 1.352h10.668V5.46H55.797Zm0 0"/><path fill="#B09454" d="M68.945 21.484h4.375a.704.704 0 1 1 .001 1.407h-4.376a.704.704 0 0 1-.71-.703c0-.391.316-.704.71-.704m-19.734 0h4.375a.704.704 0 1 1 0 1.407H49.21a.704.704 0 0 1-.711-.703c0-.391.316-.704.71-.704m13.337-2.406a.437.437 0 0 0-.442.434v16.98c0 .242.196.438.442.438h17.172a.437.437 0 0 0 .437-.438v-16.98a.436.436 0 0 0-.437-.434Zm-19.734 0a.437.437 0 0 0-.442.434v16.98c0 .242.195.438.441.438h17.172a.44.44 0 0 0 .442-.438v-16.98a.437.437 0 0 0-.442-.434ZM59.078 2.406h4.375a.704.704 0 1 1 .001 1.407h-4.376a.704.704 0 0 1-.71-.704c0-.39.316-.703.71-.703M52.68 0a.437.437 0 0 0-.442.434v16.98c0 .242.196.434.442.434h17.172a.437.437 0 0 0 .441-.434V.434A.44.44 0 0 0 69.852 0Zm0 0"/><path fill="#FFF" d="M28.266 42.598c3.644 0 6.543 2.863 6.543 6.468s-2.899 6.47-6.543 6.47c-3.649 0-6.543-2.864-6.543-6.47s2.894-6.468 6.543-6.468m0-5.465c-6.633 0-12.07 5.375-12.07 11.933 0 6.563 5.437 11.938 12.07 11.938 6.636 0 12.07-5.375 12.07-11.938 0-6.558-5.438-11.933-12.07-11.933"/><path fill="#FFF" d="M0 59.23V38.902h5.648v7.73l6.254-7.73h6.371l-7.472 9.106 7.992 11.222h-6.484L7.21 51.758l-1.563 1.605v5.867Zm47.746-9.992v9.992h-5.648V38.898H46.5l8.254 10.34v-10.34h5.648V59.23h-4.488Zm20.156-10.336 4.024 13.313 3.969-13.313h5.937L74.273 59.23h-4.691l-7.644-20.328Zm30.145 15.461v4.867H83.395V38.902h14.394v4.868h-8.746v2.863h7.469v4.523h-7.469v3.207Zm6.805-15.461 3.675 8.79 3.766-8.79h6.14L111.34 52.5v6.73h-5.621v-6.785l-6.977-13.543Zm43.043 9.219h3.562c.348 0 .664-.191.957-.57q.462-.574.461-1.606.001-1.062-.52-1.601-.521-.574-1.042-.574h-3.418Zm-5.649 11.11v-20.33h9.441q1.505 0 2.782.633a6.7 6.7 0 0 1 2.172 1.602 7.1 7.1 0 0 1 1.449 2.261 6.6 6.6 0 0 1 .52 2.547 7.3 7.3 0 0 1-.782 3.325 6.8 6.8 0 0 1-2.172 2.488L160 59.23h-6.371l-3.621-6.242h-2.113v6.242Zm-13.621-16.633c3.648 0 6.543 2.863 6.543 6.468s-2.895 6.47-6.543 6.47c-3.645 0-6.543-2.864-6.543-6.47s2.898-6.468 6.543-6.468m0-5.465c-6.633 0-12.07 5.375-12.07 11.933 0 6.563 5.437 11.938 12.07 11.938 6.637 0 12.074-5.375 12.074-11.938 0-6.558-5.437-11.933-12.074-11.933"/></svg>