<svg xmlns="http://www.w3.org/2000/svg" width="766.92" height="295.72" version="1.2" viewBox="0 0 575.19 221.79"><path d="M165.233 73.137h38.348v14.94h-38.348zm71.71 0h38.348v14.94h-38.348zM200.593 4.91h38.348v14.94h-38.348z"/><path fill="#b09454" d="M247.85 78.121h15.727c1.418 0 2.559 1.137 2.559 2.555s-1.141 2.558-2.559 2.558H247.85c-1.418 0-2.559-1.14-2.559-2.558s1.141-2.555 2.559-2.555m-70.941 0h15.727c1.414 0 2.559 1.137 2.559 2.555s-1.145 2.558-2.559 2.558h-15.727c-1.414 0-2.559-1.14-2.559-2.558s1.145-2.555 2.559-2.555m47.938-8.754c-.879 0-1.586.707-1.586 1.582v61.738c0 .879.707 1.586 1.586 1.586h61.734a1.58 1.58 0 0 0 1.582-1.586V70.95c0-.875-.703-1.582-1.582-1.582zm-70.945 0c-.875 0-1.578.707-1.578 1.582v61.738c0 .879.703 1.586 1.578 1.586h61.742a1.58 1.58 0 0 0 1.578-1.586V70.95c0-.875-.703-1.582-1.578-1.582zm58.477-60.613h15.727c1.418 0 2.559 1.137 2.559 2.555s-1.141 2.558-2.559 2.558h-15.727c-1.418 0-2.555-1.14-2.555-2.558s1.137-2.555 2.555-2.555M189.375 0c-.879 0-1.586.707-1.586 1.582V63.32c0 .875.707 1.578 1.586 1.578h61.738c.875 0 1.582-.703 1.582-1.578V1.582A1.58 1.58 0 0 0 251.113 0z"/><g fill="#fff"><path d="M101.613 154.879c13.109 0 23.523 10.414 23.523 23.523 0 13.113-10.414 23.523-23.523 23.523s-23.523-10.41-23.523-23.523c0-13.11 10.414-23.523 23.523-23.523m0-19.871c-23.848 0-43.395 19.547-43.395 43.395 0 23.852 19.547 43.395 43.395 43.395 23.852 0 43.398-19.543 43.398-43.395 0-23.848-19.547-43.395-43.398-43.395"/><path d="M0 215.359v-73.914h20.301v28.109l22.488-28.11h22.902L38.832 174.55l28.734 40.809h-23.32l-18.324-27.172-5.621 5.832v21.34zm171.643-36.34v36.332h-20.301v-73.914h15.824l29.672 37.582v-37.582h20.3v73.914h-16.136zm72.46-37.58 14.469 48.41 14.266-48.41h21.34l-27.172 73.914h-16.863l-27.484-73.914zm108.37 56.22v17.695h-52.676V141.44h51.742v17.699h-31.441v10.41h26.859v16.449h-26.86v11.66zm24.46-56.22 13.223 31.96 13.53-31.96h22.07l-25.503 49.449v24.465h-20.195V190.68l-25.09-49.242zm154.74 33.53h12.805q1.874 0 3.437-2.082 1.665-2.083 1.664-5.832 0-3.852-1.875-5.828-1.87-2.081-3.746-2.082h-12.285zm-20.301 40.39v-73.913h33.938q5.414.001 9.996 2.293 4.581 2.184 7.808 5.828 3.33 3.54 5.204 8.223 1.875 4.582 1.875 9.265c0 4.305-.938 8.328-2.813 12.078-1.871 3.68-4.477 6.696-7.809 9.059l15.617 27.168h-22.902l-13.012-22.695h-7.601v22.695zm-48.969-60.48c13.109 0 23.523 10.414 23.523 23.523 0 13.113-10.414 23.523-23.523 23.523s-23.523-10.41-23.523-23.523c0-13.11 10.414-23.523 23.523-23.523m0-19.871c-23.848 0-43.395 19.547-43.395 43.395 0 23.852 19.547 43.395 43.395 43.395 23.852 0 43.398-19.543 43.398-43.395 0-23.848-19.547-43.395-43.398-43.395"/></g></svg>