<?xml version="1.0" encoding="UTF-8"?>
<svg xmlns="http://www.w3.org/2000/svg" xmlns:xlink="http://www.w3.org/1999/xlink" width="160" height="61" viewBox="0 0 160 61">
<path fill-rule="nonzero" fill="rgb(0%, 0%, 0%)" fill-opacity="1" d="M 45.960938 20.113281 L 56.628906 20.113281 L 56.628906 24.222656 L 45.960938 24.222656 Z M 45.960938 20.113281 "/>
<path fill-rule="nonzero" fill="rgb(0%, 0%, 0%)" fill-opacity="1" d="M 65.910156 20.113281 L 76.578125 20.113281 L 76.578125 24.222656 L 65.910156 24.222656 Z M 65.910156 20.113281 "/>
<path fill-rule="nonzero" fill="rgb(0%, 0%, 0%)" fill-opacity="1" d="M 55.796875 1.351562 L 66.464844 1.351562 L 66.464844 5.460938 L 55.796875 5.460938 Z M 55.796875 1.351562 "/>
<path fill-rule="nonzero" fill="rgb(69.01961%, 58.039218%, 32.941177%)" fill-opacity="1" d="M 68.945312 21.484375 L 73.320312 21.484375 C 73.714844 21.484375 74.03125 21.796875 74.03125 22.1875 C 74.03125 22.578125 73.714844 22.890625 73.320312 22.890625 L 68.945312 22.890625 C 68.550781 22.890625 68.234375 22.578125 68.234375 22.1875 C 68.234375 21.796875 68.550781 21.484375 68.945312 21.484375 M 49.210938 21.484375 L 53.585938 21.484375 C 53.980469 21.484375 54.296875 21.796875 54.296875 22.1875 C 54.296875 22.578125 53.980469 22.890625 53.585938 22.890625 L 49.210938 22.890625 C 48.816406 22.890625 48.5 22.578125 48.5 22.1875 C 48.5 21.796875 48.816406 21.484375 49.210938 21.484375 M 62.546875 19.078125 C 62.300781 19.078125 62.105469 19.273438 62.105469 19.511719 L 62.105469 36.492188 C 62.105469 36.734375 62.300781 36.929688 62.546875 36.929688 L 79.71875 36.929688 C 79.960938 36.929688 80.15625 36.734375 80.15625 36.492188 L 80.15625 19.511719 C 80.15625 19.273438 79.960938 19.078125 79.71875 19.078125 Z M 42.8125 19.078125 C 42.566406 19.078125 42.371094 19.273438 42.371094 19.511719 L 42.371094 36.492188 C 42.371094 36.734375 42.566406 36.929688 42.8125 36.929688 L 59.984375 36.929688 C 60.230469 36.929688 60.425781 36.734375 60.425781 36.492188 L 60.425781 19.511719 C 60.425781 19.273438 60.230469 19.078125 59.984375 19.078125 Z M 59.078125 2.40625 L 63.453125 2.40625 C 63.847656 2.40625 64.164062 2.71875 64.164062 3.109375 C 64.164062 3.5 63.847656 3.8125 63.453125 3.8125 L 59.078125 3.8125 C 58.683594 3.8125 58.367188 3.5 58.367188 3.109375 C 58.367188 2.71875 58.683594 2.40625 59.078125 2.40625 M 52.679688 0 C 52.433594 0 52.238281 0.195312 52.238281 0.433594 L 52.238281 17.414062 C 52.238281 17.65625 52.433594 17.847656 52.679688 17.847656 L 69.851562 17.847656 C 70.09375 17.847656 70.292969 17.65625 70.292969 17.414062 L 70.292969 0.433594 C 70.292969 0.195312 70.09375 0 69.851562 0 Z M 52.679688 0 "/>
<path fill-rule="nonzero" fill="rgb(100%, 100%, 100%)" fill-opacity="1" d="M 28.265625 42.597656 C 31.910156 42.597656 34.808594 45.460938 34.808594 49.066406 C 34.808594 52.671875 31.910156 55.535156 28.265625 55.535156 C 24.617188 55.535156 21.722656 52.671875 21.722656 49.066406 C 21.722656 45.460938 24.617188 42.597656 28.265625 42.597656 M 28.265625 37.132812 C 21.632812 37.132812 16.195312 42.507812 16.195312 49.066406 C 16.195312 55.628906 21.632812 61.003906 28.265625 61.003906 C 34.902344 61.003906 40.335938 55.628906 40.335938 49.066406 C 40.335938 42.507812 34.898438 37.132812 28.265625 37.132812 "/>
<path fill-rule="nonzero" fill="rgb(100%, 100%, 100%)" fill-opacity="1" d="M 0 59.230469 L 0 38.902344 L 5.648438 38.902344 L 5.648438 46.632812 L 11.902344 38.902344 L 18.273438 38.902344 L 10.800781 48.007812 L 18.792969 59.230469 L 12.308594 59.230469 L 7.210938 51.757812 L 5.648438 53.363281 L 5.648438 59.230469 Z M 0 59.230469 "/>
<path fill-rule="nonzero" fill="rgb(100%, 100%, 100%)" fill-opacity="1" d="M 47.746094 49.238281 L 47.746094 59.230469 L 42.097656 59.230469 L 42.097656 38.898438 L 46.5 38.898438 L 54.753906 49.238281 L 54.753906 38.898438 L 60.402344 38.898438 L 60.402344 59.230469 L 55.914062 59.230469 Z M 47.746094 49.238281 "/>
<path fill-rule="nonzero" fill="rgb(100%, 100%, 100%)" fill-opacity="1" d="M 67.902344 38.902344 L 71.925781 52.214844 L 75.894531 38.902344 L 81.832031 38.902344 L 74.273438 59.230469 L 69.582031 59.230469 L 61.9375 38.902344 Z M 67.902344 38.902344 "/>
<path fill-rule="nonzero" fill="rgb(100%, 100%, 100%)" fill-opacity="1" d="M 98.046875 54.363281 L 98.046875 59.230469 L 83.394531 59.230469 L 83.394531 38.902344 L 97.789062 38.902344 L 97.789062 43.769531 L 89.042969 43.769531 L 89.042969 46.632812 L 96.511719 46.632812 L 96.511719 51.15625 L 89.042969 51.15625 L 89.042969 54.363281 Z M 98.046875 54.363281 "/>
<path fill-rule="nonzero" fill="rgb(100%, 100%, 100%)" fill-opacity="1" d="M 104.851562 38.902344 L 108.527344 47.691406 L 112.292969 38.902344 L 118.433594 38.902344 L 111.339844 52.5 L 111.339844 59.230469 L 105.71875 59.230469 L 105.71875 52.445312 L 98.742188 38.902344 Z M 104.851562 38.902344 "/>
<path fill-rule="nonzero" fill="rgb(100%, 100%, 100%)" fill-opacity="1" d="M 147.894531 48.121094 L 151.457031 48.121094 C 151.804688 48.121094 152.121094 47.929688 152.414062 47.550781 C 152.722656 47.167969 152.875 46.632812 152.875 45.945312 C 152.875 45.238281 152.703125 44.703125 152.355469 44.34375 C 152.007812 43.960938 151.660156 43.769531 151.3125 43.769531 L 147.894531 43.769531 Z M 142.246094 59.230469 L 142.246094 38.902344 L 151.6875 38.902344 C 152.691406 38.902344 153.617188 39.113281 154.46875 39.535156 C 155.320312 39.933594 156.042969 40.46875 156.640625 41.136719 C 157.257812 41.785156 157.742188 42.539062 158.089844 43.398438 C 158.4375 44.238281 158.609375 45.085938 158.609375 45.945312 C 158.609375 47.128906 158.347656 48.238281 157.828125 49.269531 C 157.308594 50.28125 156.582031 51.109375 155.65625 51.757812 L 160 59.230469 L 153.628906 59.230469 L 150.007812 52.988281 L 147.894531 52.988281 L 147.894531 59.230469 Z M 142.246094 59.230469 "/>
<path fill-rule="nonzero" fill="rgb(100%, 100%, 100%)" fill-opacity="1" d="M 128.625 42.597656 C 132.273438 42.597656 135.167969 45.460938 135.167969 49.066406 C 135.167969 52.671875 132.273438 55.535156 128.625 55.535156 C 124.980469 55.535156 122.082031 52.671875 122.082031 49.066406 C 122.082031 45.460938 124.980469 42.597656 128.625 42.597656 M 128.625 37.132812 C 121.992188 37.132812 116.554688 42.507812 116.554688 49.066406 C 116.554688 55.628906 121.992188 61.003906 128.625 61.003906 C 135.261719 61.003906 140.699219 55.628906 140.699219 49.066406 C 140.699219 42.507812 135.261719 37.132812 128.625 37.132812 "/>
</svg>
